<?xml version="1.0" encoding="UTF-8" standalone="no"?>
<!-- Created with Inkscape (http://www.inkscape.org/) -->

<svg
   width="168mm"
   height="40mm"
   viewBox="0 0 168 40"
   version="1.1"
   id="svg5"
   xml:space="preserve"
   xmlns="http://www.w3.org/2000/svg"
   xmlns:svg="http://www.w3.org/2000/svg"><defs
     id="defs2" /><g
     id="layer1"><text
       xml:space="preserve"
       style="font-style:normal;font-variant:normal;font-weight:normal;font-stretch:normal;font-size:19.7556px;font-family:'UD Digi Kyokasho NK-B';-inkscape-font-specification:'UD Digi Kyokasho NK-B';fill:#008080;fill-opacity:1;stroke-width:0.264583"
       x="56.192837"
       y="28.607895"
       id="text509"><tspan
         id="tspan507"
         style="font-style:normal;font-variant:normal;font-weight:bold;font-stretch:normal;font-size:19.7556px;font-family:'Trebuchet MS';-inkscape-font-specification:'Trebuchet MS Bold';fill:#008080;fill-opacity:1;stroke-width:0.264583"
         x="56.192837"
         y="28.607895">JSE- </tspan></text><text
       xml:space="preserve"
       style="font-style:normal;font-variant:normal;font-weight:normal;font-stretch:normal;font-size:19.7556px;font-family:'UD Digi Kyokasho NK-B';-inkscape-font-specification:'UD Digi Kyokasho NK-B';fill:#008080;fill-opacity:1;stroke-width:0.264583"
       x="96.490929"
       y="28.272099"
       id="text509-0"><tspan
         id="tspan507-7"
         style="font-style:normal;font-variant:normal;font-weight:bold;font-stretch:normal;font-size:19.7556px;font-family:'Trebuchet MS';-inkscape-font-specification:'Trebuchet MS Bold';fill:#008080;fill-opacity:1;stroke-width:0.264583"
         x="96.490929"
         y="28.272099">API</tspan></text><g
       id="g3053"
       transform="matrix(0.10328503,0,0,0.0713589,-2.4017121,0.26833935)"><path
         d="m 160.7,240.29 c -2.0508,0.90234 -4.0352,1.9688 -5.9453,3.207 -15.207,9.8828 -22.828,28.797 -21.445,53.266 4.8516,86.129 107.62,170.63 148.57,115.1 6.2891,-5.0898 12.836,-10.379 19.496,-15.746 6.4961,15.227 29.16,25.32 46.414,24.332 6.0703,80.941 101.63,165.75 145.88,116.19 74.125,-58.805 70.176,-55.434 70.543,-57.422 7.2109,-38.973 -0.60547,-81.02 -20.406,-109.7 -11.035,-16.145 -25.426,-29.559 -41.617,-39.113 -4.6094,-73.758 -38.332,-139.87 -48.715,-149.52 5.6406,-5.3477 10.891,-10.484 15.336,-15.066 0.13281,-0.13672 0.18359,-0.30859 0.29297,-0.45703 0.19922,-0.26562 0.40234,-0.51953 0.53516,-0.83203 0.11719,-0.27734 0.14453,-0.56641 0.19922,-0.85938 0.0391,-0.20312 0.13281,-0.39062 0.14062,-0.60547 v -0.18359 -0.0312 c 2.8242,-89.809 -70.512,-159.17 -123.93,-153.93 -0.0391,0.00391 -0.0664,0.027344 -0.10156,0.03125 -0.26953,0.035156 -0.51953,0.15234 -0.78516,0.23828 -0.26953,0.089844 -0.55078,0.15234 -0.78906,0.29297 -0.0312,0.019531 -0.0703,0.019531 -0.10156,0.039062 -82.863,51.105 -98.559,46.863 -104.23,81.938 -16.012,4.9453 -30.215,17.237998 -39.016,33.843998 -7.4609,14.07 -11.254,31.059 -11.266,50.5 -0.008,11.605 3.0547,26.977 6.0391,41.164 -8.4414,5.6641 -21.176,14.285 -35.09,23.332 z m -10.828,55.539 c -1.0273,-18.27 3.918,-31.914 13.922,-38.418 4.4336,-2.8789 9.6484,-4.2422 15.379,-4.2422 9.6836,0 20.82,3.9141 32.055,10.961 -0.0664,5.6914 -0.21484,11.75 -0.40625,18.027 -25.004,-5.9648 -41.59,23.984 -2.1289,51.109 -0.67969,14.383 -1.3438,28.938 -1.8398,42.773 -15.48,-10.902 -10.344,-23.27 -17.988,-21.398 -2.2188,0.5625 -3.5664,2.8203 -3,5.043 2.793,11.012 10.645,20.523 20.664,25.848 -0.10547,3.6172 -0.16797,7.0156 -0.23438,10.453 -29.793,-22.699 -54.375,-63.922 -56.422,-100.16 z m 60.652,-5.0547 c -0.38281,10.594 -0.85938,21.562 -1.3789,32.625 -26.129,-19.5 -15.715,-38.695 1.3789,-32.625 z m 6.2148,47.992 c 33.137,22.676 21.801,49.328 -1.7305,41.414 0.44531,-13.289 1.0703,-27.355 1.7305,-41.414 z m -2.2656,62.871 c 0.0547,-4.1367 0.13672,-8.418 0.25781,-12.875 20.941,5.7227 33.387,-9.9531 30.617,-26.508 -2.5547,-15.254 -15.352,-24.691 -28.156,-33.23 0.52344,-11.16 1.043,-22.391 1.4609,-33.246 3.3633,2.8945 6.3867,6.332 9.1406,9.582 1.4727,1.7461 4.0859,1.9688 5.8438,0.48047 1.7461,-1.4766 1.9648,-4.0977 0.48047,-5.8438 -4.2148,-4.9805 -8.9883,-10.406 -15.125,-14.227 0.18359,-5.5117 0.31641,-10.801 0.41406,-15.926 77.93,59.379 73.293,180.88 -4.9336,131.79 z m 52.551,-103.92 c -24.215,-37.266 -57.66,-59.945 -85.715,-61.055 8.3047,-5.5469 14.93,-10.008 16.316,-10.941 0.75,3.5781 1.457,7.0234 2.0117,10.062 0.23438,1.2891 1.0664,2.3906 2.2383,2.9727 0.57812,0.28906 1.2109,0.42969 1.8398,0.42969 0.64844,0 1.293,-0.14844 1.8828,-0.45313 6.7969,-3.4648 13.035,-7.668 19.645,-12.121 4.3633,-2.9414 9,-6.0703 14.266,-9.3086 1.8281,-1.1211 2.5,-3.4531 1.543,-5.375 -1.8125,-3.6523 -3.3125,-7.7539 -4.5547,-12.086 l 0.79688,-0.52734 c 13.129,-3.1055 26.879,2.5586 38.465,8.7773 l -31.57,22.004 c -1.8789,1.3086 -2.3398,3.8945 -1.0312,5.7734 0.80469,1.1562 2.0938,1.7773 3.4062,1.7773 0.81641,0 1.6445,-0.24219 2.3672,-0.74609 l 33.363,-23.254 c 0.46484,-0.32031 0.83984,-0.72656 1.125,-1.1758 8.5234,5.2695 16.578,11.383 23.941,18.242 l -29.223,22.629 c -1.8125,1.4023 -2.1445,4.0117 -0.74219,5.8203 0.81641,1.0586 2.0469,1.6094 3.2852,1.6094 2.5898,0 1.1211,-0.17969 32.602,-24.148 7.5391,7.8242 14.238,16.402 19.863,25.566 -0.43359,0.12109 -0.86328,0.26953 -1.25,0.54297 -38.969,28.957 -50.145,30.594 -45.781,36.875 1.2969,1.8633 3.875,2.3516 5.7773,1.0352 12.215,-8.5234 44.176,-30.59 45.18,-31.566 5.0547,9.3398 9.1094,19.266 12.105,29.523 -0.97656,-0.10547 -1.9883,0.0859 -2.8516,0.69531 -37.02,28.078 -47.797,29.664 -43.434,35.812 4.4336,6.2734 10.219,-3.9766 48.23,-29.043 0.0117,-0.008 0.0156,-0.0195 0.0273,-0.0273 2.8086,11.789 4.25,23.875 4.1562,35.883 -20.285,16.465 -45.625,36.832 -65.168,52.602 7.043,-25.922 -0.78516,-62.438 -23.113,-96.805 z m 154.29,-88.199 c 1.75,4.1641 29.996,41.996 36.445,105.15 -1.5938,-0.21484 -7.2227,-0.93359 -8.9609,-0.78906 -0.55078,0.0508 -1.0078,0.14453 -1.5977,0.48047 -7.8516,4.4336 -33.684,21.633 -38.879,25.086 -41.688,27.727 -38.438,24.246 -39.672,26.055 -5.5234,3.6953 -9.9805,8.5469 -13.34,14.348 -8.7461,1.8047 -20.898,0.28516 -22.824,-8.8047 24.371,-19.648 30.578,-24.84 29.719,-24.082 0.25391,-0.22656 0.88281,-1.0898 0.96875,-1.2734 0.0898,-0.18359 0.38281,-1.2461 0.40234,-1.5469 0.004,-0.0586 0.0352,-0.10547 0.0391,-0.16797 0.77344,-37.012 -11.641,-75.461 -38.34,-106.44 41.262,20.363 59.887,2.2188 96.039,-28.02 z m -113.08,181.07 c 10.062,-8.1094 16.926,-13.637 17.262,-13.91 2.9375,6.6289 11.762,12.777 25.91,11.906 -2.5156,7.0508 -3.8047,15.008 -3.8906,23.617 -15.199,0.99609 -36.344,-8.9141 -39.281,-21.613 z m 69.906,-11.52 c 4.4336,-2.8789 9.6445,-4.2422 15.371,-4.2422 9.5977,0 20.625,3.8555 31.762,10.789 -0.0703,4.9414 -0.17188,10.07 -0.3125,15.438 -24.848,-5.9688 -42.004,23.875 -1.8398,51.336 -0.53516,13.457 -1.1055,27.445 -1.5898,42.926 -16.078,-10.812 -10.852,-23.699 -18.586,-21.793 -2.2188,0.5625 -3.5664,2.8242 -3,5.043 2.8555,11.242 10.988,20.902 21.309,26.156 -0.12109,4.582 -0.19922,8.9297 -0.26562,13.215 -55.293,-41.809 -71.516,-120.23 -42.848,-138.87 z m 45.375,63.422 c -26.578,-19.688 -15.957,-38.988 1.1875,-32.809 -0.33203,10.641 -0.74219,21.672 -1.1875,32.809 z m 7.6875,15.418 c 32.98,22.664 21.074,48.422 -1.4883,41.348 0.39062,-13.273 0.92578,-27.316 1.4883,-41.348 z m -2.0664,65.59 c 0.0234,-0.34766 0.32422,-15.301 0.33203,-15.648 2.9648,0.74609 5.3594,1.043 7.9141,1.043 16.062,0 24.32,-14.215 22.055,-27.754 -2.5859,-15.473 -15.766,-24.934 -27.84,-33.016 0.45312,-11.211 0.89453,-22.484 1.2578,-33.371 8.2188,7.1328 10.305,13.836 14.875,9.9727 1.7461,-1.4766 1.9648,-4.0977 0.48047,-5.8438 -4.1992,-4.9609 -8.9531,-10.367 -15.059,-14.188 0.13281,-4.6172 0.23438,-9.0547 0.31641,-13.406 77.656,58.785 74.594,181.33 -4.332,132.21 z m 107.83,-149.27 c 1.3242,1.918 2.4609,4.0391 3.668,6.082 l -25.352,17.777 c -1.875,1.3125 -2.3281,3.9023 -1.0117,5.7773 0.80469,1.1523 2.0898,1.7656 3.3984,1.7656 0.82031,0 1.6523,-0.24219 2.3789,-0.75391 l 24.609,-17.246 c 5.7461,11.645 9.7578,24.75 11.926,38.547 l -21.871,17.18 c -4.3711,3.4258 0.86719,9.8867 5.1211,6.5234 l 18.059,-14.18 c 1.2422,13.355 0.70703,27.105 -1.6367,40.531 -21.93,17.391 -34.211,27.25 -52.402,41.734 9.4844,-31.309 -4.3359,-70.648 -22.484,-98.578 -24.426,-37.59 -58.262,-60.387 -86.469,-61.121 19.148,-12.512 37.238,-24.969 55.34,-36.051 3.0039,0.25 5.7266,0.57812 8.2891,0.97266 0.17578,2.5625 0.34766,5.1289 0.4375,7.707 l -19.629,17.656 c -1.7031,1.5312 -1.8398,4.1562 -0.30859,5.8594 0.81641,0.91016 1.9492,1.3711 3.082,1.3711 0.98828,0 1.9805,-0.35156 2.7734,-1.0664 l 14.191,-12.762 c -0.10547,8.4414 -0.625,16.914 -1.6328,25.363 -0.1875,1.5547 0.52344,3.082 1.8281,3.9453 0.69141,0.46094 1.4922,0.69141 2.293,0.69141 0.70703,0 1.418,-0.18359 2.0547,-0.54687 10.531,-6.0039 22.18,-10.555 33.441,-14.953 l 3.1055,-1.2148 c 1.5664,-0.61719 2.6094,-2.1172 2.6328,-3.8047 0.043,-3.4727 -0.008,-7.0938 -0.11328,-10.824 4.25,2.7969 8.3398,5.8555 12.25,9.2188 l -33.031,28.953 c -1.7227,1.5117 -1.8945,4.1328 -0.38672,5.8555 0.81641,0.9375 1.9688,1.4141 3.1211,1.4141 0.97266,0 1.9492,-0.33984 2.7344,-1.0273 l 33.719,-29.555 c 5.8008,5.7031 11.199,11.918 15.875,18.758 z m -42.879,-41.211 c 0.29688,5.5391 0.44141,10.641 0.43359,15.52 l -0.48047,0.1875 c -9.1484,3.5742 -18.543,7.2422 -27.551,11.75 6.582,-75.52 -30.02,-150.1 -39.184,-156.01 7.0352,-6.0273 13.793,-12.066 20.145,-17.941 27.141,41.824 43.711,93.828 46.637,146.5 z m -146.39,-315.89 c 11.938,-0.96094 23.195,1.8516 33.066,6.2461 l -37.441,28.027 c -1.832,1.3711 -2.207,3.9727 -0.83594,5.8086 0.8125,1.0859 2.0625,1.6602 3.3242,1.6602 0.86328,0 1.7383,-0.26562 2.4844,-0.82812 l 40.73,-30.492 c 12.309,6.9883 22.262,15.754 31.449,25.762 -36.504,28.039 -47.238,29.672 -42.84,35.801 1.3477,1.8789 3.9531,2.2734 5.7852,0.95313 l 42.527,-30.473 c 9.25,11.191 16.844,23.457 22.617,36.465 -36.172,26.023 -46.957,27.352 -42.773,33.594 1.2734,1.9141 3.8672,2.4102 5.7539,1.1406 l 40.242,-26.91 c 3.5352,9.3086 6.1445,18.934 7.8086,28.754 l -40.707,30.523 c -3.168,2.3711 -1.4961,7.4648 2.4922,7.4648 2.5156,0 0.82031,0.0352 39.504,-28.59 0.66797,6.3398 0.96094,12.738 0.81641,19.176 -15.598,15.941 -39.223,37.469 -62.238,55.293 16.77,-48.438 -27.723,-129.15 -82.91,-156.38 -9.9141,-4.8828 -19.422,-7.5625 -28.277,-8.2734 21.871,-12.824 40.164,-22.879 59.422,-34.727 z m -38.488,57.887 c 61.758,30.469 97.969,126.94 64.598,150.07 -33.391,23.117 -111.02,-44.891 -117.82,-113.19 -3.8398,-38.43 18.641,-53.926 53.219,-36.879 z m -29.082,126.04 c -14.117,-7.6719 -29.926,-13.684 -45.613,-9.582 -4.1523,-21.695 -1.7539,-47 8.2422,-59.836 6.4766,25.125 20.293,49.469 37.371,69.418 z m -71.773,-71.863 c 7.1523,-13.5 18.238,-23.691 30.797,-28.602 -0.29688,7.7383 0.16406,13.691 1.4922,21.258 -19.262,16.898 -20.941,61.758 -8.5977,90.355 -9.707,6.1523 -17.512,11.938 -25.332,16.488 -3.3125,-16.445 -8.668,-38.383 -8.6602,-52.883 0.0117,-18.07 3.4805,-33.754 10.301,-46.617 z"
         id="path2993"
         style="fill:#008080" /><path
         d="m 280.41,136.91 19.082,-11.68 c -0.17188,5.543 -0.45703,11.887 -0.75391,18.312 -0.44531,9.7461 -0.89063,19.5 -0.91797,26.27 -0.004,1.5156 0.8125,2.9141 2.1445,3.6445 46.641,25.785 39.684,39.234 43.805,-20.082 16.93,26.824 15.957,26.742 19.094,26.742 3.2148,0 5.2422,-3.5547 3.5195,-6.3359 -14.047,-22.656 -28.527,-45.121 -42.828,-68.18 -1.1992,-1.9375 -3.7461,-2.5469 -5.6914,-1.3477 -36.203,23.938 -47.086,24.879 -43.156,31.285 1.1914,1.9531 3.7461,2.5664 5.7031,1.3711 z m 38.273,-23.426 c 5.8164,9.3477 11.672,18.605 17.527,27.867 -0.12109,0.85156 -2.9805,41.984 -3.0312,42.816 -9.1094,-5.4531 -17.582,-11.348 -27.039,-16.754 0.21094,-12.965 1.5625,-33.875 1.7695,-47.336 z"
         id="path2995"
         style="fill:#00ff00;fill-opacity:1" /></g><g
       id="g8586"
       transform="translate(31.612933,1.7671826)"><g
         transform="matrix(0.00459908,0,0,-0.00357888,98.357038,38.440456)"
         fill="#000000"
         stroke="none"
         id="g4669"><path
           d="m 4280,10033 c -520,-53 -834,-109 -1145,-204 -245,-75 -504,-197 -692,-324 l -107,-73 -32,28 c -63,55 -159,64 -239,22 -33,-17 -42,-17 -98,-5 -247,51 -533,-56 -700,-262 -63,-78 -134,-222 -152,-310 -62,-296 88,-562 390,-690 56,-24 66,-32 61,-49 -43,-173 -79,-426 -97,-671 -13,-173 -6,-707 11,-900 5,-60 8,-111 6,-113 -2,-2 -118,-12 -257,-23 -784,-61 -1014,-81 -1033,-90 -42,-22 -56,-50 -55,-119 0,-36 39,-570 88,-1188 80,-1035 89,-1124 107,-1150 41,-54 43,-54 390,-27 176,14 331,25 345,25 21,0 34,-12 62,-55 74,-110 185,-171 298,-163 58,4 59,4 59,-21 0,-14 -5,-141 -10,-281 -24,-604 36,-1111 175,-1486 101,-270 227,-475 412,-665 l 93,-96 -122,-89 C 1752,848 1662,693 1724,512 c 19,-56 66,-112 95,-112 9,0 34,-21 55,-46 46,-55 87,-74 160,-74 74,0 167,49 299,157 247,202 326,251 439,274 55,11 61,10 165,-29 584,-217 1248,-293 1973,-226 471,44 890,152 1258,324 l 112,53 57,-39 c 31,-21 102,-91 157,-154 221,-254 313,-313 432,-281 78,21 211,126 246,195 45,86 22,215 -62,345 -46,72 -179,212 -256,272 l -54,41 46,52 c 202,229 312,410 427,701 156,398 232,810 258,1399 13,278 3,683 -26,1130 -8,121 -12,222 -9,225 2,3 17,-3 32,-12 170,-109 324,-143 401,-88 34,25 71,88 71,122 0,12 16,39 35,60 30,33 35,46 35,87 0,173 -239,347 -523,381 -43,5 -81,12 -85,15 -3,4 -9,291 -14,639 -8,671 -23,1201 -38,1382 -27,314 -75,629 -129,865 -16,69 -29,125 -28,126 1,1 36,17 77,37 199,96 334,258 370,445 25,127 -1,306 -62,427 -98,192 -287,345 -483,391 -93,22 -263,14 -356,-15 l -67,-21 -58,27 c -80,37 -160,42 -214,14 l -40,-21 -73,47 c -95,61 -307,163 -432,209 -205,74 -492,136 -780,169 -244,27 -710,43 -855,28 z m 595,-63 c 593,-42 1015,-148 1352,-339 59,-34 118,-70 131,-79 l 23,-18 -21,-65 c -15,-43 -24,-99 -28,-171 l -5,-106 -43,53 c -236,289 -634,400 -1049,291 -82,-22 -125,-25 -470,-35 -406,-12 -801,-27 -1085,-40 -131,-6 -194,-5 -250,5 -206,36 -473,1 -669,-87 -80,-36 -215,-126 -260,-173 -19,-20 -38,-36 -43,-36 -4,0 -12,19 -18,43 -7,23 -23,71 -37,106 l -26,65 30,26 c 73,65 319,201 500,276 296,123 694,215 1163,269 230,26 559,32 805,15 z m 1753,-421 c 17,-6 32,-14 32,-17 0,-14 -92,-62 -103,-55 -28,16 -77,59 -77,66 0,26 74,29 148,6 z m 490,-5 c 42,-8 115,-34 162,-56 70,-33 100,-56 170,-127 237,-239 272,-560 88,-798 -58,-76 -240,-203 -290,-203 -8,0 -29,50 -51,123 -22,67 -55,164 -74,216 l -35,93 31,32 c 38,39 51,74 51,137 0,87 -50,173 -123,210 -35,19 -53,21 -123,16 l -82,-5 -50,62 c -28,33 -78,88 -111,121 -34,33 -61,62 -61,66 0,12 134,77 193,94 128,37 197,41 305,19 z m -1402,-35 c 90,-16 180,-47 279,-97 73,-38 108,-64 186,-142 84,-84 102,-108 148,-200 179,-364 134,-743 -119,-1000 -192,-194 -440,-290 -744,-290 -461,1 -812,265 -912,686 -32,136 -5,345 65,499 123,271 396,475 721,540 80,16 296,19 376,4 z m 934,-199 c 150,-151 313,-380 384,-542 80,-182 190,-570 240,-849 83,-460 111,-906 114,-1849 2,-516 13,-842 42,-1275 38,-573 44,-736 45,-1130 0,-599 -35,-933 -141,-1335 -90,-341 -229,-643 -401,-871 C 6464,836 5566,490 4415,490 c -888,0 -1653,227 -2146,636 -421,349 -642,821 -719,1527 -32,301 -19,1030 22,1197 11,47 24,89 29,94 8,9 162,22 689,61 129,10 250,24 267,31 21,8 39,26 50,48 18,39 18,30 -37,726 -11,135 -31,394 -45,575 -87,1129 -83,1084 -105,1115 -11,16 -35,33 -53,38 -21,6 -169,-2 -426,-22 -259,-21 -395,-28 -397,-21 -10,31 -26,446 -26,665 0,557 72,995 229,1385 108,270 242,474 442,675 l 135,135 23,-50 c 35,-78 60,-193 45,-213 -51,-72 -108,-182 -135,-262 -32,-94 -32,-97 -32,-285 1,-187 1,-192 33,-285 94,-281 283,-471 570,-574 204,-73 487,-73 707,-1 340,112 576,352 652,663 22,91 22,321 -1,415 -21,89 -20,112 5,165 26,54 64,78 135,87 69,8 114,-6 153,-51 42,-47 45,-68 27,-175 -20,-116 -20,-264 -1,-349 48,-204 166,-390 328,-513 371,-284 956,-272 1335,28 134,106 230,243 285,405 31,93 31,99 31,270 -1,168 -2,179 -33,280 -60,194 -61,200 -61,325 0,117 9,181 31,237 l 11,27 62,-46 c 33,-26 104,-91 156,-143 z m -4400,123 c 14,-9 28,-21 32,-27 8,-12 -9,-36 -26,-36 -20,1 -146,67 -139,73 14,14 109,7 133,-10 z m 2723,-7 c -47,-27 2,-23 -746,-57 l -457,-20 -58,28 -57,28 130,6 c 72,4 306,12 520,19 215,6 397,13 405,14 8,2 80,4 160,5 l 145,1 z m -2933,-26 c 73,-25 160,-67 160,-76 0,-3 -43,-51 -95,-106 -52,-54 -115,-128 -141,-163 l -46,-63 -43,19 c -122,54 -219,46 -290,-26 -108,-107 -96,-262 26,-351 91,-66 87,-38 27,-222 -31,-96 -58,-162 -66,-162 -23,0 -146,67 -207,113 -72,54 -123,119 -166,212 -28,59 -33,82 -37,169 -5,119 11,194 64,302 88,178 254,315 447,369 81,23 283,15 367,-15 z m 1325,19 c 379,-47 646,-262 751,-604 25,-82 28,-105 28,-255 1,-188 -13,-251 -85,-391 -179,-345 -640,-546 -1069,-468 -275,51 -502,210 -617,435 -80,154 -97,228 -97,409 0,159 10,216 59,338 49,120 167,264 290,353 76,55 240,130 339,154 155,38 262,46 401,29 z m 1441,-111 c -67,-55 -164,-178 -207,-262 l -42,-82 -47,47 c -54,54 -87,64 -186,56 -77,-6 -142,-41 -169,-90 l -19,-35 -45,79 c -54,92 -114,166 -187,229 l -52,45 141,8 c 264,14 692,34 772,36 l 80,1 z M 2373,6472 c 13,-14 21,-72 37,-278 11,-142 36,-461 55,-709 53,-677 62,-796 86,-1093 l 22,-273 -20,-21 c -18,-17 -44,-22 -174,-33 -287,-25 -760,-58 -765,-53 -2,3 -1,37 2,75 l 7,70 84,7 c 148,11 177,44 166,188 -7,98 -22,140 -58,164 -22,14 -41,16 -131,11 -58,-4 -114,-12 -125,-18 -32,-17 -59,-70 -59,-117 v -42 l -26,16 c -14,10 -48,18 -75,19 -48,2 -52,4 -73,41 -33,59 -54,66 -171,58 -159,-10 -179,-29 -176,-164 2,-104 14,-153 44,-177 17,-13 27,-38 38,-96 11,-55 12,-80 5,-83 -6,-2 -81,-8 -166,-14 -85,-6 -229,-17 -320,-25 -193,-17 -205,-14 -214,57 -3,24 -19,219 -36,433 -16,215 -45,588 -64,830 -84,1070 -83,1043 -61,1065 22,21 21,21 530,60 743,57 963,74 1210,95 353,29 407,30 428,7 z M 7578,5210 c 186,-31 358,-134 418,-251 29,-58 30,-90 4,-114 -24,-21 -61,-14 -102,20 -31,26 -58,24 -58,-5 0,-22 52,-68 86,-76 28,-7 30,-21 10,-68 -40,-96 -162,-89 -346,19 -52,31 -98,61 -101,67 -3,5 -9,71 -13,146 -3,75 -9,167 -12,205 l -7,67 h 29 c 16,0 57,-5 92,-10 z M 1794,4464 c 19,-18 23,-36 30,-130 4,-50 2,-76 -7,-88 -15,-21 -78,-35 -157,-35 -53,-1 -56,0 -76,37 -28,48 -41,169 -22,195 18,23 64,35 150,36 48,1 71,-3 82,-15 z m -524,-44 c 31,-31 24,-40 -31,-40 -28,0 -67,-7 -86,-17 -43,-20 -83,-79 -90,-132 -7,-49 -20,-53 -27,-8 -16,98 -16,163 -3,181 15,21 69,33 160,35 45,1 61,-3 77,-19 z m 14,-106 c 9,-8 16,-30 17,-47 1,-54 22,-102 44,-102 21,0 22,5 14,110 l -4,50 40,3 c 51,4 104,-38 142,-112 35,-67 33,-124 -7,-298 -38,-160 -47,-174 -124,-172 -139,4 -267,144 -295,324 -18,115 14,226 73,250 34,14 83,11 100,-6 z M 6814,1131 c 77,-60 208,-198 251,-265 69,-109 91,-209 61,-279 -17,-40 -63,-84 -75,-71 -4,5 -23,47 -41,93 -38,96 -87,166 -115,166 -27,0 -31,-32 -7,-58 27,-31 48,-70 86,-167 l 34,-85 -37,-25 c -29,-20 -48,-25 -97,-25 -89,0 -142,39 -303,224 -72,82 -154,166 -182,186 -27,21 -47,41 -42,45 4,4 60,41 123,82 63,42 151,107 195,146 44,39 84,71 89,71 5,1 32,-17 60,-38 z M 2300,1028 c 104,-78 239,-162 350,-218 45,-23 79,-45 74,-49 -5,-4 -29,-14 -54,-22 -60,-19 -161,-86 -300,-200 -63,-52 -132,-107 -152,-122 -55,-41 -158,-87 -194,-87 -35,0 -88,32 -117,71 -27,38 -17,69 59,189 36,55 64,109 62,118 -3,17 -48,31 -48,14 0,-4 -27,-50 -60,-101 -32,-52 -64,-109 -70,-127 -16,-48 -37,-42 -65,19 -53,112 -18,227 103,347 75,73 301,242 317,236 6,-2 48,-32 95,-68 z"
           id="path4629"
           style="fill:#008080" /><path
           d="m 5422,9459 c -154,-20 -341,-89 -458,-170 -176,-121 -306,-315 -348,-521 -74,-357 119,-712 466,-859 226,-97 535,-98 775,-3 347,136 540,420 520,764 -19,324 -171,570 -432,700 -170,85 -337,114 -523,89 z m 295,-63 c 299,-64 492,-244 579,-541 23,-77 27,-109 27,-225 0,-120 -3,-144 -26,-216 -84,-254 -329,-451 -635,-510 -121,-23 -312,-19 -426,11 -291,73 -479,251 -562,532 -23,78 -25,100 -20,188 9,168 64,319 162,442 122,154 315,269 524,314 105,22 284,24 377,5 z"
           id="path4631" /><path
           d="m 4922,8844 c -123,-61 -182,-220 -135,-365 24,-74 109,-162 173,-179 55,-15 146,-8 188,14 87,45 143,138 150,251 10,171 -105,305 -263,305 -46,0 -74,-7 -113,-26 z m 278,-274 c 43,-43 13,-130 -44,-130 -29,0 -66,42 -66,75 0,33 37,75 66,75 13,0 33,-9 44,-20 z"
           id="path4633" /><path
           d="m 4318,8034 c -155,-37 -260,-133 -283,-257 -6,-29 -13,-39 -34,-44 -175,-42 -318,-256 -282,-423 23,-109 89,-190 174,-215 28,-8 55,-15 61,-15 7,0 10,-33 8,-99 -6,-167 47,-327 131,-395 74,-60 177,-43 272,45 l 46,42 30,-36 c 33,-40 98,-82 151,-97 27,-8 45,-5 101,16 37,14 81,37 97,50 47,40 53,77 48,285 l -5,187 83,-6 c 103,-6 150,14 224,94 81,90 98,183 51,289 -37,83 -176,207 -308,274 -40,20 -43,24 -43,64 -1,113 -107,214 -258,246 -71,15 -194,13 -264,-5 z m 584,-381 c 161,-96 258,-210 258,-306 0,-109 -116,-227 -222,-227 -18,0 -71,14 -118,31 -276,100 -271,99 -358,99 -72,0 -102,-6 -240,-51 -195,-64 -279,-73 -341,-39 -104,59 -141,212 -81,335 35,70 117,149 182,173 l 53,20 35,-35 c 97,-99 317,-129 533,-71 71,19 184,79 201,107 10,16 10,16 98,-36 z m -276,-487 c 139,-48 142,-50 150,-103 4,-27 8,-124 8,-217 l 1,-168 -33,-28 c -18,-15 -56,-35 -85,-45 -47,-16 -56,-16 -87,-3 -47,20 -97,63 -117,102 -19,37 -23,171 -9,370 l 8,128 48,-6 c 26,-4 78,-17 116,-30 z m -243,-208 -5,-233 -54,-52 c -93,-90 -165,-92 -229,-9 -58,76 -95,246 -78,360 l 8,60 90,27 c 50,15 124,39 165,52 120,40 109,62 103,-205 z"
           id="path4635" /><path
           d="m 4605,5870 c -44,-5 -179,-6 -300,-4 -240,6 -261,2 -279,-48 -7,-20 -3,-39 22,-91 34,-74 98,-172 149,-228 34,-38 35,-40 24,-86 -23,-103 -33,-219 -41,-488 -5,-154 -16,-374 -24,-490 -9,-115 -29,-415 -46,-665 -24,-360 -37,-489 -60,-620 -41,-228 -53,-356 -47,-474 8,-154 6,-152 174,-262 80,-52 170,-115 200,-139 86,-71 109,-71 195,-1 53,42 185,133 287,196 36,23 58,45 68,68 39,94 22,375 -42,687 -8,39 -19,144 -25,235 -6,91 -24,361 -41,600 -16,239 -34,505 -39,590 -24,376 -50,748 -55,781 -3,26 0,40 11,50 26,22 110,151 155,238 44,87 45,110 4,137 -29,19 -175,26 -290,14 z m 260,-62 c 9,-9 -83,-176 -133,-243 l -38,-50 -213,-5 -213,-5 -33,36 c -64,71 -155,219 -155,253 0,8 8,16 17,18 34,6 762,3 768,-4 z m -198,-362 c 3,-2 44,-581 68,-946 9,-129 27,-392 40,-585 13,-192 29,-417 35,-500 5,-82 21,-207 35,-276 33,-168 45,-280 45,-420 0,-146 -9,-172 -69,-206 -65,-38 -227,-150 -282,-195 -25,-21 -54,-38 -64,-38 -10,0 -39,17 -64,38 -41,34 -185,133 -298,205 -52,33 -59,59 -57,212 2,117 11,190 49,405 23,127 43,364 90,1080 9,129 20,291 25,359 6,68 10,189 10,269 0,244 31,563 59,596 8,9 56,11 193,8 101,-2 184,-5 185,-6 z"
           id="path4637" /><path
           d="m 3130,9363 c -19,-2 -77,-13 -129,-24 -272,-61 -490,-223 -596,-444 -49,-102 -66,-175 -72,-310 -11,-241 52,-419 205,-586 153,-166 381,-259 637,-259 440,0 799,247 896,616 29,112 29,278 -1,399 -43,179 -148,349 -273,443 -173,130 -416,190 -667,165 z m 330,-70 c 221,-45 399,-180 495,-377 59,-119 76,-186 82,-327 7,-145 -11,-239 -70,-359 -34,-70 -58,-102 -136,-181 -86,-86 -107,-101 -211,-152 -163,-81 -255,-101 -445,-101 -123,0 -164,4 -230,22 -338,93 -546,350 -562,692 -6,133 8,217 56,331 146,349 583,542 1021,452 z"
           id="path4639" /><path
           d="m 2674,8784 c -60,-21 -119,-76 -150,-140 -23,-46 -28,-70 -28,-133 0,-96 28,-164 91,-222 58,-53 98,-69 176,-69 112,0 193,55 245,169 21,46 24,63 20,135 -3,56 -11,93 -26,121 -66,126 -202,184 -328,139 z m 255,-290 c 41,-52 14,-126 -44,-126 -61,0 -87,81 -40,127 31,32 58,32 84,-1 z"
           id="path4641" /><path
           d="m 2055,6364 c -11,-2 -144,-13 -295,-24 -151,-11 -419,-31 -595,-45 -176,-14 -425,-34 -553,-44 -200,-15 -237,-21 -260,-38 -46,-34 -48,-53 -26,-340 l 21,-266 31,-29 c 28,-24 41,-28 90,-28 57,0 372,23 832,60 135,11 396,31 580,45 363,28 369,29 399,90 11,23 11,59 -3,239 -25,323 -24,316 -61,353 -30,30 -39,33 -86,32 -30,-1 -63,-3 -74,-5 z m 124,-61 c 19,-16 22,-41 40,-272 22,-267 20,-286 -22,-296 -20,-5 -987,-82 -1541,-122 -227,-17 -229,-17 -245,3 -13,16 -20,74 -34,266 -11,136 -16,256 -12,267 10,31 54,39 360,61 372,26 1313,99 1345,103 60,9 89,6 109,-10 z"
           id="path4643" /><path
           d="m 2022,6227 c -11,-13 -2,-152 11,-173 3,-5 -33,-10 -79,-12 -96,-3 -90,-8 -99,91 -7,71 -24,93 -50,66 -10,-11 -11,-31 -4,-89 8,-66 13,-78 41,-103 29,-26 36,-27 92,-22 34,4 71,8 84,11 20,4 22,1 22,-34 0,-108 21,-160 53,-133 22,18 3,161 -24,184 -21,17 -21,18 -4,31 16,11 17,22 11,92 -9,95 -27,125 -54,91 z"
           id="path4645" /><path
           d="m 1655,6189 c -4,-5 -4,-46 0,-89 8,-85 23,-113 50,-90 12,10 14,27 9,84 -4,39 -11,79 -16,89 -10,19 -33,23 -43,6 z"
           id="path4647" /><path
           d="m 1676,5965 c -7,-20 4,-145 16,-167 12,-24 35,-23 43,2 9,27 -5,151 -17,168 -14,16 -35,15 -42,-3 z"
           id="path4649" /><path
           d="m 2175,5513 c -16,-1 -59,-6 -94,-9 -54,-5 -69,-11 -94,-36 l -30,-29 5,-110 c 6,-116 16,-144 64,-176 23,-14 39,-15 136,-6 108,9 112,11 141,43 l 30,33 -8,106 c -3,58 -13,117 -20,131 -20,39 -71,60 -130,53 z"
           id="path4651" /><path
           d="m 1545,5463 c -100,-13 -120,-48 -111,-188 11,-161 34,-181 193,-170 105,7 108,8 142,42 l 34,34 -5,103 c -9,159 -30,186 -148,184 -41,0 -88,-3 -105,-5 z m 180,-66 c 8,-13 17,-60 21,-109 9,-113 1,-122 -119,-132 -91,-7 -122,0 -131,31 -2,10 -7,54 -11,98 -5,61 -3,84 8,99 15,21 69,33 159,35 50,1 60,-2 73,-22 z"
           id="path4653" /><path
           d="m 1008,5421 c -56,-8 -95,-41 -103,-85 -3,-17 -1,-74 4,-125 8,-90 10,-97 42,-124 l 32,-30 104,7 c 134,8 163,23 186,96 7,24 -11,197 -23,220 -25,46 -106,60 -242,41 z m 185,-59 c 11,-12 18,-47 23,-112 8,-121 5,-125 -121,-134 -121,-9 -126,-6 -135,110 -10,128 -5,137 90,147 92,10 127,7 143,-11 z"
           id="path4655" /><path
           d="m 495,5381 c -104,-14 -128,-51 -118,-183 7,-98 22,-140 58,-164 22,-14 42,-16 131,-11 165,9 190,38 175,200 -10,102 -19,127 -53,151 -24,17 -97,19 -193,7 z m 170,-61 c 13,-15 19,-42 23,-112 6,-119 1,-124 -123,-133 -119,-9 -126,-3 -133,127 -6,126 -4,128 174,136 30,2 46,-3 59,-18 z"
           id="path4657" /><path
           d="m 2124,5021 c -75,-7 -109,-31 -125,-88 -6,-20 34,-580 46,-650 3,-19 19,-43 38,-59 31,-26 33,-27 136,-20 171,11 188,30 177,209 -15,250 -37,504 -47,540 -19,70 -64,84 -225,68 z m 164,-59 c 16,-16 22,-60 41,-308 12,-159 24,-301 27,-315 4,-19 -2,-35 -18,-53 -21,-24 -31,-27 -119,-33 -94,-6 -97,-5 -112,18 -11,18 -22,106 -41,334 -24,299 -24,311 -7,335 19,26 57,36 159,38 38,2 57,-3 70,-16 z"
           id="path4659" /><path
           d="m 1574,4991 c -54,-9 -92,-35 -100,-67 -12,-47 2,-219 20,-246 31,-48 90,-58 225,-38 110,16 129,50 113,210 -9,87 -12,96 -41,122 -29,26 -38,28 -104,27 -39,-1 -91,-5 -113,-8 z m 190,-63 c 8,-13 17,-61 21,-108 9,-116 0,-127 -111,-136 -100,-8 -127,-2 -142,31 -14,30 -16,183 -3,204 11,17 71,28 158,30 55,1 64,-2 77,-21 z"
           id="path4661" /><path
           d="m 1051,4951 c -44,-6 -59,-13 -84,-41 l -30,-33 6,-102 c 6,-114 19,-150 58,-171 31,-15 124,-18 203,-5 37,6 57,16 78,40 25,27 28,39 27,94 -1,119 -13,168 -48,199 -28,25 -38,28 -94,27 -34,-1 -86,-5 -116,-8 z m 183,-59 c 12,-14 18,-46 22,-113 8,-123 3,-128 -128,-136 -122,-7 -127,-2 -135,129 -7,126 1,134 153,137 57,1 74,-3 88,-17 z"
           id="path4663" /><path
           d="m 531,4910 c -55,-6 -69,-12 -93,-39 -25,-27 -28,-39 -27,-94 1,-119 13,-168 48,-199 28,-25 39,-28 100,-28 106,0 172,15 200,47 23,26 23,32 18,133 -9,186 -34,204 -246,180 z m 174,-60 c 20,-22 33,-155 21,-204 -8,-32 -54,-46 -152,-46 -95,0 -101,8 -110,131 -8,108 -3,118 69,130 90,14 153,10 172,-11 z"
           id="path4665" /><path
           d="m 561,4441 c -43,-6 -59,-13 -82,-39 -27,-30 -29,-38 -29,-110 1,-112 13,-162 46,-190 26,-23 33,-24 133,-20 178,7 200,32 184,205 -10,101 -12,108 -42,135 -28,25 -38,28 -94,27 -34,-1 -86,-5 -116,-8 z m 173,-54 c 20,-15 34,-81 35,-163 1,-71 -16,-84 -121,-93 -104,-10 -124,-3 -137,46 -18,64 -14,177 7,196 28,25 187,36 216,14 z"
           id="path4667" /></g></g><path
       style="fill:#008080;fill-opacity:1;stroke-width:0.0694214"
       d="m 138.69171,38.774754 c -0.13151,-0.09875 -0.30938,-0.207309 -0.39527,-0.241245 -0.20062,-0.07926 -0.43333,-0.460668 -0.43366,-0.710755 -5.3e-4,-0.451009 0.45631,-0.932349 1.42781,-1.504143 0.34092,-0.20066 0.62867,-0.372785 0.63944,-0.3825 0.0108,-0.0097 -0.24381,-0.239464 -0.56574,-0.510553 -1.01979,-0.858756 -1.77234,-2.031582 -2.15413,-3.357108 -0.29812,-1.035018 -0.38896,-1.897425 -0.38896,-3.69248 v -1.639852 l -0.36447,-0.0015 c -0.4428,-0.0018 -0.89804,-0.195033 -1.23734,-0.525069 l -0.24809,-0.241311 -1.03621,0.07048 c -1.50276,0.102215 -2.21978,0.09401 -2.34057,-0.02677 -0.0554,-0.0554 -0.13414,-0.370378 -0.17789,-0.71157 -0.0657,-0.512361 -0.60638,-5.880907 -0.74352,-7.382408 -0.0648,-0.710004 -0.23682,-0.65944 2.93957,-0.864266 1.49611,-0.09648 2.82599,-0.175409 2.95528,-0.175409 h 0.23509 l -0.0354,-1.725771 c -0.0377,-1.834019 0.0193,-2.608727 0.27292,-3.709117 0.0773,-0.335553 0.12514,-0.650348 0.10626,-0.699545 -0.0189,-0.0492 -0.18577,-0.145579 -0.37086,-0.214183 -1.7983,-0.6665004 -2.21405,-2.1741714 -0.94515,-3.4274954 0.75913,-0.749808 1.44295,-0.963652 3.24077,-1.013448 1.07095,-0.02966 1.27058,-0.01859 1.43698,0.07971 0.18951,0.111944 0.20919,0.10653 1.01616,-0.279537 1.92382,-0.920386 4.12706,-1.411104 7.72295,-1.7201 1.59567,-0.137116 4.28746,0.0026 6.23412,0.323618 1.22734,0.202387 2.09719,0.446821 3.17181,0.891308 0.71251,0.294708 0.79284,0.312963 1.21488,0.276085 0.32271,-0.0282 0.53892,-0.008 0.75621,0.07067 0.22616,0.08187 0.36877,0.0937 0.55537,0.04605 1.83892,-0.469554 3.88856,0.545702 4.15888,2.060037 0.1795,1.005511 -0.45738,1.866815 -1.73009,2.3397564 l -0.32146,0.119456 0.16677,0.601172 c 0.24694,0.890218 0.49303,2.290912 0.57519,3.2739 0.0399,0.477273 0.10633,2.226159 0.14765,3.886415 0.0541,2.175234 0.0981,3.033229 0.1572,3.070838 0.0451,0.0287 0.1786,0.05267 0.29658,0.05325 0.34843,0.0017 1.26146,0.261054 1.63511,0.46442 0.63117,0.343525 0.94323,0.889602 0.64827,1.1344 -0.058,0.04812 -0.15591,0.193896 -0.21762,0.323955 -0.23113,0.487058 -0.82086,0.554307 -1.7062,0.194561 -0.59761,-0.242829 -0.62097,-0.236443 -0.5754,0.15728 0.0799,0.69022 0.17487,2.586675 0.17464,3.487245 -10e-4,3.726 -0.93293,6.403076 -2.86959,8.242721 l -0.51989,0.493837 0.39232,0.260482 c 0.53139,0.352825 1.1091,0.909667 1.26906,1.223219 0.2098,0.411224 0.17554,0.726438 -0.10799,0.993847 -0.32729,0.308671 -0.83545,0.542568 -1.17726,0.541872 -0.38666,-7.94e-4 -0.74301,-0.198549 -1.51702,-0.841904 -0.36113,-0.300181 -0.77319,-0.617832 -0.91568,-0.705893 l -0.25906,-0.16011 -0.84402,0.283319 c -1.44475,0.48497 -2.78226,0.774083 -4.62749,1.000275 -1.1809,0.144759 -5.28768,0.120732 -6.4562,-0.03777 -1.17935,-0.159972 -2.1051,-0.341177 -3.12396,-0.611492 -1.17168,-0.310853 -1.48916,-0.24348 -2.8659,0.608182 -0.91394,0.56537 -1.27367,0.719042 -1.68508,0.719839 -0.27027,5.29e-4 -0.40596,-0.04061 -0.59008,-0.178869 z m 1.00054,-0.01937 c 0.20263,-0.07122 0.75635,-0.3649 1.2305,-0.652631 0.47414,-0.287729 1.02609,-0.58043 1.22655,-0.650444 0.20045,-0.07001 0.36367,-0.143396 0.36271,-0.163071 -0.003,-0.05983 -2.3867,-1.216686 -2.48421,-1.205605 -0.19692,0.02238 -1.24271,0.703169 -1.58977,1.03492 -0.33628,0.321432 -0.36725,0.377211 -0.36725,0.661413 0,0.289798 0.14469,0.618956 0.27208,0.618956 0.0308,0 0.21855,-0.218678 0.4173,-0.485952 0.32271,-0.433978 0.49435,-0.586299 0.48894,-0.433883 -0.001,0.02864 -0.1416,0.237138 -0.3124,0.463336 -0.1708,0.2262 -0.31054,0.447844 -0.31054,0.492546 0,0.10641 0.20171,0.286147 0.41795,0.372425 0.23528,0.09387 0.23243,0.0941 0.64814,-0.05201 z m 22.35086,-0.296444 c 0.0834,-0.04336 0.16163,-0.08719 0.17384,-0.09741 0.0366,-0.03067 -0.26876,-0.605745 -0.45019,-0.847736 -0.13591,-0.181282 -0.14751,-0.225621 -0.059,-0.225621 0.0606,0 0.2375,0.203057 0.39311,0.451239 0.29828,0.475734 0.38589,0.526992 0.56364,0.329753 0.27727,-0.307668 0.1949,-0.741331 -0.23347,-1.22922 -0.28884,-0.328972 -1.07615,-0.930547 -1.28715,-0.983506 -0.11165,-0.02802 -0.3246,0.06092 -0.73341,0.306326 -0.31684,0.190199 -0.74786,0.43197 -0.95782,0.537269 l -0.38174,0.191457 0.20092,0.146275 c 0.1105,0.08045 0.51658,0.408525 0.9024,0.729052 0.38581,0.320527 0.7952,0.62389 0.90975,0.674142 0.25873,0.113504 0.75736,0.122849 0.9591,0.01797 z m -8.24836,-0.367033 c 2.97057,-0.411152 5.15063,-1.123415 6.79424,-2.21979 2.20146,-1.468491 3.44056,-3.848447 3.73116,-7.16647 0.10092,-1.152215 0.0386,-3.697432 -0.14588,-5.961272 -0.0871,-1.068257 -0.16755,-2.949986 -0.20931,-4.894215 -0.0911,-4.241133 -0.21246,-5.336667 -0.79975,-7.219834 -0.47923,-1.5366714 -0.99343,-2.4396954 -1.8986,-3.3342694 -0.6561,-0.648422 -1.65619,-1.363719 -1.76064,-1.25927 -0.0353,0.03529 -0.0922,0.185135 -0.12653,0.332985 -0.11292,0.486696 -0.0707,0.940964 0.14395,1.54978 0.17448,0.494804 0.2069,0.691197 0.2069,1.253312 0,0.583681 -0.0231,0.71296 -0.18593,1.0396804 -0.29127,0.584502 -0.87445,1.116537 -1.63039,1.487407 -1.34786,0.661274 -2.73447,0.806333 -4.29143,0.448945 -1.53591,-0.352559 -2.75577,-1.430012 -2.94889,-2.6046494 -0.026,-0.158253 -0.009,-0.546537 0.0368,-0.862854 l 0.0841,-0.575121 -0.21917,-0.195824 c -0.169,-0.150998 -0.28805,-0.195824 -0.52011,-0.195824 -0.73139,0 -1.0132,0.30157 -0.87189,0.933028 0.0455,0.203341 0.0689,0.630367 0.052,0.951092 -0.0247,0.4712774 -0.068,0.6508694 -0.2273,0.9435714 -0.70415,1.293746 -2.39952,2.101234 -4.41169,2.101234 -1.00952,0 -1.69048,-0.144658 -2.48483,-0.527856 -0.7683,-0.370634 -1.33069,-0.891213 -1.64362,-1.521449 -0.16882,-0.339981 -0.21083,-0.522653 -0.23202,-1.0087944 -0.0323,-0.742153 0.0438,-1.027382 0.43601,-1.632815 0.17658,-0.272584 0.31222,-0.564902 0.31306,-0.674661 0.002,-0.211278 -0.24183,-0.743516 -0.34009,-0.743516 -0.10673,0 -1.13478,0.8671 -1.57594,1.329209 -1.01905,1.067436 -1.73286,2.6612714 -2.00666,4.4806084 -0.11884,0.789645 -0.15868,3.329425 -0.0641,4.086432 l 0.0486,0.389334 1.08469,-0.05767 c 0.59658,-0.03172 1.49033,-0.05767 1.9861,-0.05767 0.89401,0 0.90208,0.0014 0.981,0.173553 0.0715,0.15598 0.7359,6.389093 0.83615,7.844628 0.0585,0.84924 0.14315,0.807137 -1.89006,0.939927 -0.91386,0.05968 -1.91018,0.130344 -2.21404,0.157022 l -0.55248,0.04851 -0.0911,0.312397 c -0.22413,0.76837 -0.26867,3.37416 -0.0783,4.581818 0.18886,1.198187 0.62868,2.395935 1.18966,3.23977 0.39893,0.600068 1.34388,1.516444 2.00425,1.943638 1.82548,1.18089 4.3,1.924888 7.45239,2.240663 1.02758,0.102931 5.06965,0.03954 6.03967,-0.09472 z M 136.83542,26.509452 c 0.11703,-0.179713 0.33288,-0.979576 0.33288,-1.233555 0,-0.377504 -0.36284,-0.761267 -0.71976,-0.761267 -0.24913,0 -0.25214,0.0034 -0.25214,0.286186 0,0.235405 -0.017,0.272084 -0.0958,0.206708 -0.0527,-0.04371 -0.11437,-0.172497 -0.13711,-0.286186 -0.0377,-0.188244 -0.0663,-0.206708 -0.32076,-0.206708 -0.70675,0 -0.83951,0.92919 -0.22927,1.604652 0.13765,0.152356 0.31544,0.312037 0.3951,0.354846 0.364,0.19562 0.91019,0.214411 1.02682,0.03532 z m -3.29708,-0.562184 c 0.73352,-0.0468 1.34965,-0.101086 1.36919,-0.120624 0.0641,-0.06408 -0.10993,-0.579906 -0.24505,-0.726405 -0.0975,-0.10567 -0.13219,-0.246358 -0.13219,-0.535575 0,-0.465342 0.0403,-0.497849 0.69421,-0.560375 0.45368,-0.04338 0.52007,-0.02575 0.91065,0.241813 0.091,0.06231 0.2943,0.132353 0.45186,0.15565 0.27421,0.04055 0.28822,0.03363 0.32726,-0.161582 0.0526,-0.263071 0.20317,-0.338229 0.78543,-0.392099 0.40294,-0.03728 0.49929,-0.02425 0.63353,0.08568 0.27432,0.22465 0.29677,0.923071 0.0332,1.033029 -0.0671,0.02801 -0.30952,0.07051 -0.53861,0.09443 l -0.41653,0.0435 -0.0214,0.295042 c -0.015,0.207543 0.006,0.295052 0.0694,0.295078 0.58117,2.08e-4 3.90402,-0.227903 4.09986,-0.281488 0.1599,-0.04375 0.26033,-0.113235 0.26033,-0.180121 0,-0.161695 -0.68118,-6.966136 -0.77234,-7.715108 -0.0622,-0.51106 -0.10565,-0.659012 -0.20992,-0.714811 -0.0919,-0.04917 -1.53726,0.01438 -4.79857,0.21096 -2.56691,0.154728 -4.78426,0.29951 -4.92743,0.32174 l -0.26034,0.04042 v 0.377399 c 0,0.44901 0.66807,7.253806 0.76559,7.798101 0.0372,0.207782 0.10668,0.402552 0.15435,0.432821 0.10663,0.06771 0.12524,0.06731 1.76745,-0.03748 z m 1.37987,-1.123299 c 0.13624,-0.287109 0.40725,-0.448182 0.75409,-0.448182 0.25761,0 0.30318,-0.05431 0.16311,-0.19438 -0.10018,-0.100178 -0.73922,-0.110268 -0.98821,-0.0156 -0.15427,0.05865 -0.17807,0.10893 -0.17807,0.37614 0,0.283994 0.0501,0.528057 0.1083,0.528057 0.0132,0 0.0766,-0.110714 0.14078,-0.246033 z m 3.38515,0.02458 c 0.10867,-0.058 0.12103,-0.118397 0.0803,-0.39215 -0.0265,-0.177972 -0.0803,-0.362636 -0.11959,-0.410363 -0.0873,-0.106052 -0.84024,-0.116945 -1.03089,-0.01491 -0.1895,0.10142 -0.1812,0.543975 0.0149,0.793253 0.14097,0.179212 0.17052,0.186966 0.53802,0.141182 0.21387,-0.02664 0.44666,-0.0793 0.5173,-0.117008 z m 28.09139,-1.583505 c 0.15923,-0.159227 0.18542,-0.416529 0.0424,-0.416529 -0.053,0 -0.17019,-0.06413 -0.26033,-0.142512 l -0.16389,-0.142512 0.17356,0.05325 c 0.0954,0.02929 0.28289,0.05437 0.41653,0.05574 0.19673,0.002 0.24702,-0.02594 0.26425,-0.14683 0.0699,-0.490503 -1.30496,-1.199842 -2.33244,-1.203381 l -0.29794,-0.001 0.0411,0.538016 c 0.0731,0.958324 0.0785,0.973577 0.40181,1.139118 0.80904,0.414233 1.46538,0.516289 1.715,0.266667 z M 146.04233,12.357131 c 1.25302,-0.275934 2.36729,-1.013774 2.79511,-1.850837 0.2467,-0.482685 0.27667,-1.5464244 0.0599,-2.1252224 -0.2121,-0.566307 -0.95325,-1.309559 -1.62749,-1.632121 -1.95917,-0.937278 -4.96013,-0.475165 -6.22405,0.95843 -0.51922,0.58892 -0.57996,0.767828 -0.57996,1.708076 0,0.7912584 0.0102,0.8514694 0.20327,1.1999694 0.85797,1.548637 3.03925,2.255686 5.37323,1.741705 z m 10.74372,-0.375275 c 2.30942,-0.577158 3.37606,-2.3206104 2.50187,-4.0894064 -0.43389,-0.877923 -1.28023,-1.520471 -2.40391,-1.825086 -0.61041,-0.165472 -2.28105,-0.168302 -2.881,-0.0049 -1.14254,0.311223 -2.05481,0.844187 -2.57624,1.505091 -0.60155,0.762453 -0.74919,1.772837 -0.37472,2.5643974 0.79035,1.670658 3.26133,2.467838 5.734,1.849884 z m -19.32159,-1.921169 c 0.30517,-0.6294544 0.31091,-0.7594964 0.0405,-0.9185604 -0.52015,-0.306023 -0.66949,-0.66056 -0.42667,-1.012876 0.28841,-0.418458 0.68103,-0.536281 1.27767,-0.383427 l 0.41898,0.107337 0.61252,-0.53786 c 0.33688,-0.295823 0.63025,-0.576433 0.65192,-0.623578 0.0928,-0.201913 -0.79844,-0.434943 -1.66352,-0.434943 -0.77555,0 -1.35378,0.161726 -1.94541,0.544115 -0.74146,0.479232 -1.13657,1.098546 -1.13657,1.781505 0,0.739629 0.42796,1.312031 1.27686,1.7077834 0.5769,0.26895 0.66271,0.246916 0.89367,-0.229496 z m 26.69029,-0.3040154 c 0.37225,-0.218067 0.73517,-0.590244 0.89598,-0.91884 0.18396,-0.375908 0.16832,-1.073556 -0.0326,-1.456081 -0.68341,-1.300912 -2.38043,-1.899725 -3.9888,-1.407489 -0.29735,0.09101 -0.55937,0.195763 -0.58226,0.232792 -0.0229,0.03703 0.17355,0.264978 0.43652,0.506553 l 0.47813,0.439226 0.45124,0.0035 c 0.52128,0.004 0.8335,0.154135 1.00324,0.482386 0.15084,0.291682 0.13466,0.449545 -0.0711,0.694118 -0.12805,0.152176 -0.1651,0.254971 -0.13083,0.362964 0.1001,0.315367 0.59882,1.3434954 0.67435,1.3901734 0.0894,0.05528 0.43204,-0.07495 0.86619,-0.3292754 z m -14.58587,-2.10546 c 0.42894,-0.119103 0.71909,-0.0892 1.05723,0.108961 l 0.31463,0.184386 0.17576,-0.236452 c 0.2292,-0.308342 0.7573,-0.836625 0.97742,-0.977765 0.0955,-0.0612 0.15732,-0.128323 0.13748,-0.149156 -0.0406,-0.04267 -4.17813,0.08265 -4.43063,0.1342 -0.15501,0.03165 -0.15016,0.04219 0.10413,0.226448 0.31814,0.230519 0.65571,0.561623 0.90254,0.88523 l 0.18004,0.236042 0.15627,-0.168622 c 0.0859,-0.09274 0.27726,-0.202215 0.42513,-0.243272 z m -7.96368,-0.626786 c 0.47423,-0.304148 1.02855,-0.541872 1.64371,-0.704919 0.50467,-0.133762 0.77125,-0.147417 3.29129,-0.168586 3.89263,-0.0327 6.97871,-0.143465 7.81124,-0.28036 0.8045,-0.132288 1.9071,-0.101062 2.56728,0.0727 0.60641,0.159615 1.33099,0.523161 1.7876,0.896896 l 0.39917,0.326725 v -0.232204 c 0,-0.127712 0.0478,-0.415857 0.10631,-0.640322 0.061,-0.234352 0.0803,-0.434077 0.0453,-0.469086 -0.1313,-0.131296 -1.37903,-0.623515 -2.08265,-0.82159 -1.71402,-0.482507 -3.69653,-0.710861 -6.1913,-0.713144 -2.23494,-0.002 -4.19217,0.19718 -6.10909,0.62184 -1.34919,0.298889 -2.9613,0.86724 -3.72573,1.313512 l -0.28937,0.16893 0.18428,0.416929 c 0.10134,0.229311 0.19758,0.416929 0.21386,0.416929 0.0163,0 0.17291,-0.09192 0.34807,-0.204255 z m 9.01703,-0.563332 c 1.80188,-0.06565 2.30475,-0.119752 2.30475,-0.247964 0,-0.05225 -4.42531,0.02055 -5.51901,0.0908 l -0.69421,0.04459 0.27769,0.123102 c 0.22489,0.0997 0.40965,0.117204 0.97189,0.09208 0.38182,-0.01706 1.57832,-0.06323 2.65889,-0.102602 z m -10.15453,8.99e-4 c 0.0931,-0.150685 -0.12148,-0.274645 -0.4755,-0.274645 -0.39725,0 -0.37827,0.07631 0.0588,0.23629 0.34342,0.125711 0.36171,0.127394 0.41673,0.03835 z m 19.98825,-0.424631 c 0.33323,-0.151832 0.16788,-0.266542 -0.38423,-0.266542 -0.37375,0 -0.42487,0.06371 -0.18523,0.230866 0.18997,0.132517 0.33673,0.141712 0.56946,0.03568 z"
       id="path5533" /><g
       id="g8688"
       transform="matrix(1.0101428,0,0,1,68.825722,15.904643)"><g
         id="g8667"><g
           id="g8563"
           transform="translate(-37.994425,-14.13746)"><path
             style="fill:#008080;fill-opacity:1;stroke-width:0.26238"
             d="m 438.84722,138.13646 c -16.72119,-1.72812 -28.51464,-6.68256 -34.46263,-14.47776 -4.63896,-6.07965 -6.53066,-14.51348 -5.72601,-25.528421 0.28253,-3.867493 0.61375,-5.747831 1.06121,-6.024375 0.12439,-0.07688 3.04228,-0.314174 6.4842,-0.527327 11.24489,-0.696373 11.11208,-0.66567 11.11208,-2.569066 0,-1.190646 -2.7942,-29.406483 -3.05345,-30.833762 -0.0859,-0.472915 -0.37083,-0.974717 -0.63316,-1.115117 -0.62832,-0.336261 -3.1879,-0.325546 -9.50653,0.0398 -2.85479,0.165066 -5.25972,0.230932 -5.34428,0.146374 -0.0846,-0.08456 -0.25986,-2.137133 -0.38957,-4.561273 -0.79179,-14.797918 2.72268,-24.79802 11.12447,-31.653673 1.40883,-1.149571 2.63642,-2.015222 2.72797,-1.923668 0.0916,0.09155 0.37434,0.780508 0.62841,1.531009 l 0.46195,1.364549 -0.88005,1.152558 c -1.77466,2.324206 -2.08884,3.301708 -2.08884,6.498908 0,2.735236 0.0465,2.986827 0.85576,4.629998 1.58604,3.220399 5.28811,5.974364 9.63945,7.170769 2.14099,0.588665 7.7509,0.811008 10.25801,0.406567 4.36452,-0.704072 8.05128,-2.437534 10.61517,-4.991089 2.50767,-2.497568 3.00344,-3.668117 3.00344,-7.091278 0,-1.515247 -0.0983,-3.179815 -0.2185,-3.69904 -0.18506,-0.799551 -0.1235,-1.054499 0.40223,-1.66569 1.10461,-1.28419 4.23882,-1.179388 4.95875,0.165812 0.1845,0.344747 0.17641,1.108212 -0.0259,2.442781 -0.50102,3.305216 0.1624,5.522739 2.51712,8.41371 l 1.20474,1.479093 -0.87709,-0.222982 c -0.48242,-0.122641 -2.17589,-0.218252 -3.76329,-0.212471 -2.41663,0.0088 -3.09806,0.106478 -4.1885,0.600378 -1.60088,0.725095 -2.15475,1.212053 -2.78653,2.449921 -0.34289,0.671822 -0.72388,1.012944 -1.26377,1.131525 -1.25796,0.276294 -3.13837,1.6869 -3.83631,2.877833 -1.4589,2.489431 -0.22217,5.326774 2.57039,5.897042 0.82963,0.169419 0.85011,0.208477 1.04796,1.998966 0.36504,3.303574 1.95721,5.368306 4.13964,5.368306 0.57471,0 1.57607,-0.311409 2.40719,-0.7486 1.37856,-0.725167 1.44112,-0.734007 1.99879,-0.282442 0.31662,0.256388 1.09367,0.663982 1.72678,0.905769 1.07059,0.408862 1.25453,0.409541 2.62984,0.0097 2.33541,-0.678928 2.5076,-0.968278 2.5076,-4.213738 v -2.754994 h 1.60022 c 1.89156,0 3.07338,-0.494128 4.17055,-1.743741 0.63481,-0.723008 0.78874,-1.136383 0.78874,-2.11814 0,-1.115539 -0.10899,-1.324869 -1.27488,-2.448644 -0.70119,-0.675853 -2.1073,-1.628234 -3.1247,-2.116402 -1.67183,-0.802181 -1.88651,-0.994868 -2.23128,-2.002695 -0.20981,-0.613314 -0.35188,-1.115117 -0.31571,-1.115117 0.0362,0 0.81696,0.349662 1.7351,0.777026 8.02356,3.734729 19.42624,2.061762 24.70682,-3.62491 1.99763,-2.151258 2.53898,-3.587626 2.54204,-6.744846 0.002,-2.231119 -0.10233,-2.901146 -0.67523,-4.329277 -0.37278,-0.929296 -0.74016,-2.398056 -0.8164,-3.263911 -0.14455,-1.641701 0.27134,-3.804516 0.73156,-3.804516 0.70369,0 3.8058,2.462668 6.40827,5.087325 2.29424,2.313804 3.11389,3.348348 3.97271,5.014321 2.7193,5.274986 4.50499,11.811034 5.34045,19.547342 0.14805,1.370938 0.38409,7.864853 0.52452,14.430923 0.14043,6.566071 0.43183,14.240698 0.64754,17.054728 0.87955,11.473773 0.98706,13.967245 0.84848,19.678532 -0.16485,6.7941 -0.68037,10.3589 -2.1599,14.93553 -4.66248,14.42251 -15.82382,21.83743 -37.38415,24.83581 -3.50671,0.48767 -19.44938,0.74058 -23.07352,0.36603 z m 14.92708,-24.81807 c 2.43926,-1.32797 3.73301,-2.1857 3.85868,-2.55821 0.36668,-1.08688 0.12482,-4.61119 -0.54524,-7.94526 -0.47469,-2.36196 -0.99256,-7.068501 -1.72799,-15.704619 -0.57759,-6.782534 -1.12575,-13.076922 -1.21814,-13.987529 -0.16529,-1.62912 -0.15318,-1.671161 0.75585,-2.623804 1.32807,-1.391781 2.56281,-3.200086 2.56281,-3.753284 0,-0.910206 -0.85215,-1.019387 -7.95628,-1.019387 -6.30159,0 -6.99519,0.04367 -7.52641,0.473822 l -0.58515,0.473825 0.54373,1.065805 c 0.29906,0.586195 1.1362,1.71406 1.86033,2.506371 1.24868,1.366251 1.30338,1.486477 1.0603,2.330484 -0.14096,0.489452 -0.43039,3.684797 -0.64316,7.100764 -0.58793,9.438763 -1.65729,20.1183 -2.37634,23.732052 -0.70103,3.52317 -0.82311,6.42324 -0.31276,7.42922 0.36766,0.72471 7.02689,4.44397 7.99426,4.46489 0.32224,0.007 2.23722,-0.88635 4.25551,-1.98514 z"
             id="path5521"
             transform="scale(0.26458333)" /></g></g><path
         style="fill:#000000;fill-opacity:1;stroke-width:0.13119"
         d="m 428.24585,40.513753 c 0.0947,-0.0379 0.20786,-0.03324 0.25145,0.01036 0.0436,0.04359 -0.0339,0.0746 -0.17219,0.0689 -0.15283,-0.0063 -0.18391,-0.03738 -0.0793,-0.07926 z"
         id="path7090"
         transform="scale(0.26458333)" /><path
         style="fill:#000000;fill-opacity:1;stroke-width:0.185531"
         d="m 516.0827,38.685876 c -2.88032,-1.392889 -4.58958,-3.585522 -4.52797,-5.808452 0.0916,-3.304515 3.75408,-6.884381 8.21031,-8.025095 1.72294,-0.441042 5.89243,-0.293131 7.65315,0.271493 0.68878,0.220878 1.25233,0.473235 1.25233,0.560792 0,0.08756 -0.94617,0.998703 -2.10261,2.024769 l -2.10261,1.865574 -1.00503,-0.267478 c -1.35695,-0.361136 -3.20254,-0.347007 -3.99831,0.03061 -0.91639,0.434856 -1.6925,1.469486 -1.94344,2.590782 -0.19584,0.875101 -0.17735,1.046538 0.19601,1.817798 0.31191,0.644323 0.67582,1.014262 1.49527,1.520057 l 1.08303,0.668486 -0.24822,0.703548 c -0.6083,1.724097 -1.38532,2.786574 -2.03789,2.786574 -0.21721,0 -1.08301,-0.332756 -1.92402,-0.739458 z"
         id="path9469"
         transform="matrix(0.26192666,0,0,0.26458333,-68.134646,-15.904643)" /><path
         style="fill:#000000;fill-opacity:1;stroke-width:0.185531"
         d="m 615.94494,35.619743 -1.22261,-2.506874 0.5932,-0.675622 c 0.56281,-0.640998 0.5896,-0.739393 0.5229,-1.919991 -0.054,-0.956031 -0.18364,-1.415608 -0.55937,-1.983376 -0.70577,-1.066487 -1.57137,-1.425077 -3.63796,-1.507077 l -1.72431,-0.06842 -1.50163,-1.425052 -1.50163,-1.425053 1.55616,-0.502589 c 3.24796,-1.048985 5.72163,-1.063023 8.71743,-0.04947 1.70386,0.576456 2.72376,1.198599 4.1461,2.529129 1.46338,1.368919 2.20774,2.507464 2.62512,4.015273 0.27365,0.988606 0.28761,1.304684 0.0955,2.163084 -0.28195,1.259878 -1.33755,2.7631 -2.65094,3.775044 -0.97369,0.750221 -3.53485,2.087869 -3.99759,2.087869 -0.13077,0 -0.78794,-1.128093 -1.46038,-2.506873 z"
         id="path9471"
         transform="matrix(0.26192666,0,0,0.26458333,-68.134646,-15.904643)" /><path
         style="fill:#008080;fill-opacity:1;stroke-width:0.185531"
         d="m 497.88677,97.732311 c -0.12689,-0.278489 -0.3486,-1.426462 -0.4927,-2.551051 -0.54172,-4.227839 -2.69038,-26.737518 -2.63779,-27.633936 l 0.0548,-0.934701 0.83489,-0.133366 c 0.45919,-0.07335 4.42491,-0.348587 8.81272,-0.611637 4.38781,-0.263049 12.02224,-0.730221 16.96542,-1.038161 10.39569,-0.647609 10.76728,-0.646853 11.08677,0.02255 0.1241,0.260018 0.90848,7.265864 1.74307,15.568547 1.72946,17.205047 1.76788,15.462236 -0.34531,15.663183 -2.88881,0.274702 -8.87578,0.685412 -11.60778,0.796302 l -2.9373,0.119221 0.0616,-0.539873 c 0.0607,-0.532682 0.0838,-0.542773 1.73135,-0.757588 0.91838,-0.119744 1.71665,-0.224105 1.77394,-0.231914 0.0573,-0.0078 0.28689,-0.184429 0.51021,-0.392489 0.32724,-0.304864 0.40605,-0.586413 0.40605,-1.450572 0,-1.45132 -0.4558,-2.920343 -1.021,-3.290679 -0.30874,-0.202296 -0.85746,-0.290846 -1.75046,-0.282486 -2.35005,0.022 -3.17717,0.334393 -3.64911,1.378204 -0.32678,0.722771 -0.39666,0.772701 -1.00067,0.715014 -0.66517,-0.06353 -1.63283,-0.464432 -2.78297,-1.152986 -0.57004,-0.34127 -0.86891,-0.379303 -2.44693,-0.311394 -1.20473,0.05185 -1.94325,0.17281 -2.23928,0.366777 -1.00019,0.655354 -1.05857,3.90116 -0.0885,4.92107 0.58664,0.616786 0.84489,1.482721 0.48081,1.612201 -0.36646,0.130321 -8.27904,0.656106 -9.87382,0.656106 -1.29814,0 -1.36736,-0.02207 -1.58801,-0.506342 z m 6.61977,-1.194955 c 0.33242,-0.101051 0.68725,-0.338533 0.7885,-0.527735 0.23817,-0.445009 0.23484,-2.126374 -0.006,-2.993144 -0.28137,-1.013017 -0.82116,-1.271408 -2.65599,-1.271408 -2.00364,0 -2.6032,0.127578 -3.20035,0.680991 -0.45828,0.42472 -0.48195,0.53263 -0.41935,1.911244 0.0558,1.228402 0.1364,1.535666 0.50613,1.929223 0.24187,0.257462 0.61724,0.50234 0.83415,0.544172 0.61729,0.119046 3.48238,-0.06954 4.15282,-0.273343 z m 26.35311,-1.440397 c 1.86457,-0.216029 2.07809,-0.439301 2.07809,-2.173 0,-1.622825 -0.50365,-6.734352 -0.7606,-7.719353 -0.2911,-1.115874 -0.74855,-1.295319 -3.11539,-1.222062 -1.73009,0.05355 -2.11354,0.12229 -2.55828,0.458628 -0.52005,0.393295 -0.5229,0.406996 -0.48227,2.312102 0.0499,2.337021 0.5614,7.154581 0.80878,7.616815 0.44952,0.839949 1.46802,1.023665 4.02967,0.72687 z m -27.18767,-4.846377 c 1.04843,-0.29116 1.30936,-0.823515 1.15019,-2.346661 -0.14342,-1.372429 -0.45886,-2.171501 -0.92835,-2.351657 -0.16518,-0.06339 -1.13107,-0.115248 -2.14642,-0.115248 -2.74607,0 -3.50922,0.432276 -3.49953,1.982261 0.007,1.184478 0.32118,2.169731 0.83109,2.60963 0.4263,0.36776 0.68692,0.417322 2.18971,0.41641 0.9382,-5.57e-4 2.01969,-0.0882 2.40331,-0.194735 z m 9.72572,-0.843435 c 0.44291,-0.330077 0.532,-0.543413 0.58111,-1.391483 0.0805,-1.389334 -0.0996,-2.173338 -0.61846,-2.692143 -0.40848,-0.408486 -0.58915,-0.443098 -2.3128,-0.443098 -2.8703,0 -3.62995,0.449563 -3.55131,2.101678 0.12592,2.645599 0.4749,2.948896 3.30402,2.871582 1.76323,-0.04819 2.15277,-0.115156 2.59744,-0.446536 z M 522.61085,88.906 c 0.60585,-0.396966 0.75671,-1.186143 0.51425,-2.690018 -0.27394,-1.699093 -0.55475,-1.880933 -2.89624,-1.875508 -3.13654,0.0073 -3.7167,0.434669 -3.50321,2.580789 0.23122,2.324375 0.38955,2.43587 3.34282,2.354093 1.54997,-0.04292 2.18497,-0.135172 2.54238,-0.369356 z m -19.01349,-5.27562 c 0.42838,-0.319 0.49713,-0.516107 0.5443,-1.56052 0.11922,-2.639143 -0.51191,-3.205298 -3.37391,-3.026574 -2.00327,0.125099 -2.83568,0.432612 -3.0058,1.110422 -0.16302,0.649532 0.0121,2.465062 0.29744,3.084411 0.35962,0.780462 0.82659,0.908133 3.0333,0.82932 1.63908,-0.05854 2.10572,-0.139968 2.50467,-0.437059 z m 8.95797,-0.419057 c 0.77296,-0.358522 0.97252,-0.922329 0.82749,-2.337855 -0.22216,-2.168397 -0.52893,-2.398476 -3.17263,-2.379451 -3.02626,0.02178 -3.59534,0.521817 -3.27062,2.873818 0.15831,1.146719 0.27663,1.453407 0.70245,1.820862 0.48766,0.420811 0.60534,0.437302 2.46778,0.345852 1.07563,-0.05282 2.17612,-0.198267 2.44553,-0.323226 z m 9.4843,-0.789015 c 0.61547,-0.469445 0.63159,-0.514886 0.55471,-1.563741 -0.11817,-1.612182 -0.3764,-2.436729 -0.841,-2.685377 -0.25421,-0.13605 -1.17201,-0.209791 -2.40589,-0.193303 -2.06412,0.02758 -2.94449,0.271122 -3.17779,0.879091 -0.18866,0.491652 -0.11093,2.355183 0.12714,3.048112 0.33566,0.976947 0.83628,1.147788 3.12902,1.067792 1.79103,-0.06249 2.04039,-0.115203 2.61381,-0.552574 z m 9.24733,-0.523915 0.58352,-0.415499 -0.12445,-1.373356 c -0.16786,-1.852396 -0.34409,-2.242244 -1.16948,-2.587112 -0.5472,-0.228637 -1.04389,-0.262481 -2.35123,-0.16021 -1.70771,0.133591 -2.18177,0.258086 -2.7755,0.728892 -0.30796,0.244201 -0.33042,0.437924 -0.20934,1.80573 0.12017,1.357531 0.19794,1.594499 0.68233,2.078879 l 0.54669,0.546696 2.11698,-0.104261 c 1.79278,-0.08829 2.20633,-0.167889 2.70048,-0.519759 z M 517.07484,75.98005 c 6.63273,-0.409908 12.37338,-0.833358 12.75701,-0.940999 1.28645,-0.360969 1.35632,-0.659996 1.0092,-4.319391 -0.33556,-3.537595 -0.50836,-4.233086 -1.15746,-4.65839 -0.60036,-0.393368 -0.58479,-0.393846 -14.69454,0.451598 -18.91982,1.133658 -18.06247,1.031705 -18.35156,2.182324 -0.0702,0.279324 0.0131,2.052408 0.18518,3.940186 0.30282,3.322972 0.32883,3.446504 0.81653,3.877444 l 0.50375,0.44512 3.43619,-0.116302 c 1.8899,-0.06397 8.86296,-0.451681 15.4957,-0.86159 z"
         id="path9473"
         transform="matrix(0.26192666,0,0,0.26458333,-68.134646,-15.904643)" /><path
         style="fill:#008080;fill-opacity:1;stroke-width:0.185531"
         d="m 533.40224,26.222221 c -0.25348,-0.544504 -0.4617,-1.084027 -0.46269,-1.19894 -0.004,-0.458927 5.25266,-2.815189 8.87132,-3.976523 5.14785,-1.652096 13.05424,-3.054107 20.90459,-3.706931 3.14699,-0.2617 11.86266,-0.262069 15.39907,-6.51e-4 9.73116,0.719342 16.49255,2.193299 22.08675,4.814829 0.86265,0.404251 1.56547,0.844778 1.56184,0.97895 -0.004,0.134171 -0.12756,0.744882 -0.2754,1.357134 -0.14783,0.612252 -0.27009,1.379623 -0.27169,1.705268 l -0.003,0.592081 -1.53064,-1.151317 c -1.56973,-1.180732 -3.67037,-2.302058 -5.5039,-2.938002 -2.50908,-0.87025 -6.64719,-1.11544 -10.68921,-0.633354 -4.89422,0.583726 -10.15628,0.790855 -26.30218,1.035325 -6.95958,0.105378 -13.31289,0.279018 -14.11845,0.385867 -2.47649,0.32848 -5.29999,1.408243 -8.23047,3.1475 l -0.97517,0.578772 z"
         id="path9475"
         transform="matrix(0.26192666,0,0,0.26458333,-68.134646,-15.904643)" /><path
         style="fill:#008080;fill-opacity:1;stroke-width:0.185531"
         d="m 562.52823,29.555433 c -0.30519,-0.407727 -1.16044,-1.317654 -1.90056,-2.02206 -1.20036,-1.142456 -1.29474,-1.28074 -0.87409,-1.28074 0.54549,0 8.50779,-0.308588 12.04742,-0.466912 l 2.40643,-0.107637 -1.38867,1.446843 c -0.76376,0.795764 -1.60095,1.731348 -1.8604,2.079076 l -0.47174,0.632232 -1.22059,-0.600893 c -1.95108,-0.960512 -4.13914,-0.785014 -5.49598,0.440817 l -0.68693,0.620595 z"
         id="path9477"
         transform="matrix(0.26192666,0,0,0.26458333,-68.134646,-15.904643)" /></g></g></svg>
